<svg xmlns="http://www.w3.org/2000/svg" viewBox="0 0 1953 365">
  <g data-name="Ebene 2">
    <path d="M3 113h2l1 5 12 2 5 3 8-2 3 3h4l7-3 8 2 2 2 4-2 12 1 2-2 8-2 4 2h12l5-3 5 1 14-7 6 4h10l3 3 5 1 4-1 5 6 4-2h10l2 2h4l10 8h4l16 6 1-1 4 4 7 1 5 5 11 1 3 3 16 7 6-7 5-1 4-4 27-1 2-2h4l5 5v2h6l7 3h6l2 2 10 1 4 2 5-1 5 5 1 3h10l3 10 6 4-1 5 6 6h6v2l8 5 3 5 8 1 6 6v8l7 7h2l4 4h10l10 12 5 2 1-1 10 9h2l7 8h2v4l2 2 17 4 5-1 8 10 9 3 4 4 17-1v-2l17-1 6-6h2l1-3 5-1 5-5h2l7-8h2l1-3 10-2 3-3 1 1 5-3 16 2 9-1 2 2h14l10 4h12l5 1 2 2h6l6-4 10 7 28-2 7-9 7-1 6-6 2-11-4-2 1-4 12-10 13-1 1-3 4-2 1-5 4-3 7-10 1-5 9-12 1-7h3l2-7 5-5 9-5 4-8 7 1 2-2 9-1 13 6 17 1 7 7 9-4 6-7h4l2-2v-2l16-19 2-4-1-5 4-6 7-5 5-1V91l2-2v-8l2-4-1-3 5-1 6-4 13 1 6-6 7-3 3-6h23l4 2 16 2v-2l8-2 7-5 7-2 4-4 3 1 9-3 30 3 5 3h10l5-7h6l2-2 11-2h9l5-3 11-3h6l3-3 4-1 7-8h12l10-2 6-8 4-1 4-4 3 1 4-2 9 1 3 3h11l4-2V3l7 1 5 3 2-1 3 3 7 1 4 3 8-2h10l22 5 6-1 7 3 9 1 6 6 5 1 3 3 2 8 7 1 7 6h2l2 2-1 1 3 1v2l3 3 23 1 4 4 8 1 5-3 8-2 19-11 3 1 4-2 7 1 4 4 7 1 9 6 14 4 12 11-1 5 6 6 1 3 12 9h4l4 8 1 11 6 10 1 5 5 5 9-2 15 1 3 8 10 9 5 1 9 5 10 2 13 11 6 2 9-1 6 5h2l1 3 5 4h8l4 2 3-1 10 13h2l4 4 11 4 10 9v2l4 4-1 12 7 6 1 5 4 4 1 7h2l2 4 3-1 2 2v4h2l6 6h2l3 5h4l4 3 6-4 2 2 9-1 6 5 4-2h11l19 7h6l2 2 5 1 8 6-2 3 4 10 10 3 3 3 5-1 7 6 5-1 5 2 4 3v4l4 4 5 1 2 6h14l11 4 1 3 9 5 9 1 4 2 5 5 13 1 9 6 16-2 7 5" fill="none" stroke="#0c3" stroke-linecap="round" stroke-linejoin="round" stroke-opacity=".800000011920929" stroke-width="6px" data-name="Ebene 1"/>
  </g>
</svg>
